<svg xmlns="http://www.w3.org/2000/svg" viewBox="0 0 64 64" role="img" aria-labelledby="radio-title">
  <title id="radio-title">Radio FM Online</title>
  <rect width="64" height="64" rx="14" fill="#facc15"/>
  <path d="M14 21h36a6 6 0 0 1 6 6v22a6 6 0 0 1-6 6H14a6 6 0 0 1-6-6V27a6 6 0 0 1 6-6Z" fill="#18181b"/>
  <path d="m17 21 28-12" stroke="#18181b" stroke-width="3" stroke-linecap="round"/>
  <circle cx="45" cy="9" r="2.5" fill="#18181b"/>
  <circle cx="24" cy="39" r="10" fill="#facc15"/>
  <circle cx="24" cy="39" r="4" fill="#18181b"/>
  <rect x="39" y="29" width="10" height="5" rx="2.5" fill="#facc15"/>
  <path d="M40 41h8M40 47h8" stroke="#fef08a" stroke-width="2.5" stroke-linecap="round"/>
</svg>
