<svg xmlns="http://www.w3.org/2000/svg" viewBox="0 0 64 64"><rect width="64" height="64" rx="14" fill="#064e3b"/><path d="M13 22h38a5 5 0 0 1 5 5v23a5 5 0 0 1-5 5H13a5 5 0 0 1-5-5V27a5 5 0 0 1 5-5Z" fill="#d1fae5"/><path d="m16 22 31-12" stroke="#a7f3d0" stroke-width="3" stroke-linecap="round"/><circle cx="47" cy="10" r="2.5" fill="#a7f3d0"/><circle cx="24" cy="39" r="10" fill="#10b981"/><circle cx="24" cy="39" r="4" fill="#d1fae5"/><path d="M40 31h8M40 37h8M40 43h8M40 49h8" stroke="#059669" stroke-width="2.5" stroke-linecap="round"/></svg>
